<?xml version="1.0" standalone="no"?>
<!DOCTYPE svg PUBLIC "-//W3C//DTD SVG 20010904//EN"
 "http://www.w3.org/TR/2001/REC-SVG-20010904/DTD/svg10.dtd">
<svg version="1.0" xmlns="http://www.w3.org/2000/svg"
 width="32.000000pt" height="32.000000pt" viewBox="0 0 32.000000 32.000000"
 preserveAspectRatio="xMidYMid meet">

<g transform="translate(0.000000,32.000000) scale(0.100000,-0.100000)"
fill="#000000" stroke="none">
<path d="M108 265 c-47 -32 -58 -52 -58 -105 0 -34 6 -48 34 -76 30 -30 40
-34 84 -34 41 0 55 5 80 28 59 55 51 141 -17 188 -45 31 -77 30 -123 -1z m102
-3 c19 -15 20 -23 13 -52 -5 -20 -18 -39 -30 -45 -30 -13 -44 -46 -30 -71 10
-17 9 -18 -7 -5 -9 8 -15 20 -12 27 3 8 0 13 -5 11 -6 -1 -20 14 -30 34 -16
29 -17 41 -9 66 18 49 71 67 110 35z m-127 -56 c-3 -16 6 -46 25 -80 17 -31
27 -56 24 -56 -17 1 -34 19 -28 29 4 7 1 9 -8 5 -22 -8 -43 67 -28 101 15 32
21 32 15 1z m184 -28 c-3 -8 -6 -5 -6 6 -1 11 2 17 5 13 3 -3 4 -12 1 -19z"/>
<path d="M130 230 c-15 -28 4 -60 34 -60 32 0 50 24 42 55 -5 20 -13 25 -36
25 -19 0 -33 -7 -40 -20z m58 -18 c3 -18 -1 -22 -22 -22 -19 0 -26 5 -26 18 0
39 43 43 48 4z"/>
<path d="M158 23 c6 -2 18 -2 25 0 6 3 1 5 -13 5 -14 0 -19 -2 -12 -5z"/>
</g>
</svg>
